<svg width="1920" height="1080" viewBox="0 0 1920 1080" fill="none" xmlns="http://www.w3.org/2000/svg">
<g clip-path="url(#clip0_506_11)">
<rect width="1920" height="1080" fill="#3CAAFF" fill-opacity="0.95"/>
<path d="M0 83.6998C0 165.4 0 167.4 1.9 165.5C2.9 164.4 22.5 141 45.6 113.5C68.6 85.9998 98.9 49.7998 113 32.9998C127.1 16.1998 139 1.89977 139.4 1.19977C140 0.299774 125.8 -0.000230957 70.1 -0.000230957H0V83.6998Z" fill="#172331" fill-opacity="0.9"/>
<path d="M127.9 92.2002C85.3 142.9 39.1 198 25.2 214.6L0 244.8L0.2 282L0.5 319.2L10 307.8C27.7 286.8 197.1 84.9002 231.4 44.0002C250 21.7002 266 2.70021 266.8 1.70021C268.2 0.100213 266.7 0.000193214 236.8 0.000193214H205.3L127.9 92.2002Z" fill="#172331" fill-opacity="0.9"/>
<path d="M318.1 17.7001C297.7 41.9001 283.2 59.2 221.7 132.5C192.6 167.1 164.5 200.7 159.1 207C149.5 218.4 81.1 300 27.8 363.7L0 396.9V738.5V1080H960H1920V540V-5.72204e-06H1126.6H333.1L318.1 17.7001Z" fill="#172331" fill-opacity="0.9"/>
<path d="M1327.16 937.5C1326.89 937.75 1326.5 937.875 1326 937.875H1304.6C1304.1 937.875 1303.7 937.75 1303.41 937.5C1303.14 937.229 1303 936.906 1303 936.531C1303 936.177 1303.14 935.865 1303.41 935.594C1303.7 935.323 1304.09 935.187 1304.57 935.187H1314.1V903.969H1304.57C1304.09 903.969 1303.7 903.844 1303.41 903.594C1303.14 903.323 1303 903.01 1303 902.656C1303 902.281 1303.14 901.958 1303.41 901.687C1303.7 901.417 1304.1 901.281 1304.6 901.281H1326C1326.48 901.281 1326.86 901.417 1327.13 901.687C1327.42 901.958 1327.57 902.281 1327.57 902.656C1327.57 903.01 1327.43 903.323 1327.16 903.594C1326.89 903.844 1326.51 903.969 1326.03 903.969H1317.1V935.187H1326.03C1326.51 935.187 1326.89 935.323 1327.16 935.594C1327.43 935.865 1327.57 936.177 1327.57 936.531C1327.57 936.906 1327.43 937.229 1327.16 937.5ZM1383.85 913.875V929.781C1383.85 931.594 1384.36 933.063 1385.38 934.187C1386.42 935.292 1387.95 935.844 1389.97 935.844C1391.2 935.844 1392.46 935.615 1393.75 935.156C1395.05 934.698 1396.2 934.073 1397.22 933.281C1398.26 932.49 1399.01 931.615 1399.47 930.656V915.813L1396.44 916.437C1396.25 916.5 1396.07 916.531 1395.88 916.531C1395.44 916.531 1395.09 916.396 1394.82 916.125C1394.55 915.854 1394.41 915.542 1394.41 915.187C1394.41 914.896 1394.5 914.646 1394.69 914.437C1394.9 914.208 1395.2 914.052 1395.6 913.969L1401.03 912.875C1401.2 912.833 1401.33 912.813 1401.41 912.813C1401.72 912.813 1401.97 912.917 1402.16 913.125C1402.37 913.333 1402.47 913.583 1402.47 913.875V935.219L1407.1 934.875H1407.29C1407.7 934.875 1408.01 934.979 1408.22 935.187C1408.43 935.396 1408.53 935.656 1408.53 935.969C1408.53 936.281 1408.43 936.573 1408.22 936.844C1408.01 937.094 1407.72 937.26 1407.35 937.344L1401.53 937.969H1401.32C1400.9 937.969 1400.56 937.844 1400.29 937.594C1400.01 937.323 1399.87 936.927 1399.85 936.406L1399.69 933.687C1398.77 935.042 1397.41 936.167 1395.6 937.063C1393.79 937.958 1391.9 938.406 1389.94 938.406C1388.07 938.406 1386.44 938.042 1385.07 937.313C1383.69 936.583 1382.64 935.563 1381.91 934.25C1381.2 932.937 1380.85 931.417 1380.85 929.687V915.813L1377.79 916.437C1377.66 916.479 1377.48 916.5 1377.25 916.5C1376.84 916.5 1376.49 916.365 1376.22 916.094C1375.95 915.823 1375.82 915.51 1375.82 915.156C1375.82 914.865 1375.91 914.615 1376.1 914.406C1376.29 914.198 1376.57 914.052 1376.94 913.969L1382.41 912.875C1382.58 912.833 1382.7 912.813 1382.79 912.813C1383.1 912.813 1383.35 912.917 1383.53 913.125C1383.74 913.333 1383.85 913.583 1383.85 913.875ZM1421.85 923.687C1420.7 922.687 1420.13 921.313 1420.13 919.563C1420.13 917 1421.09 915.177 1423 914.094C1424.94 913.01 1427.34 912.469 1430.19 912.469C1432 912.469 1433.75 912.75 1435.44 913.313C1437.13 913.854 1438.29 914.531 1438.91 915.344V914.187C1438.89 913.708 1439.01 913.333 1439.29 913.063C1439.56 912.771 1439.87 912.625 1440.22 912.625C1440.58 912.625 1440.88 912.76 1441.13 913.031C1441.38 913.302 1441.5 913.677 1441.5 914.156L1441.44 920.437C1441.4 920.833 1441.29 921.125 1441.1 921.313C1440.91 921.5 1440.61 921.594 1440.19 921.594C1439.67 921.594 1439.34 921.396 1439.19 921C1439.05 920.604 1438.96 919.917 1438.94 918.937C1438.38 917.625 1437.31 916.646 1435.72 916C1434.16 915.354 1432.24 915.031 1429.97 915.031C1425.56 915.031 1423.35 916.385 1423.35 919.094C1423.35 920.052 1423.64 920.833 1424.22 921.437C1424.81 922.021 1425.84 922.479 1427.32 922.813L1435.41 924.437C1437.43 924.833 1438.98 925.552 1440.07 926.594C1441.17 927.635 1441.72 929.229 1441.72 931.375C1441.72 933.708 1440.8 935.469 1438.94 936.656C1437.11 937.823 1434.64 938.406 1431.53 938.406C1429.58 938.406 1427.75 938.115 1426.07 937.531C1424.4 936.948 1422.99 936 1421.85 934.687V936.563C1421.85 937 1421.73 937.333 1421.5 937.563C1421.3 937.771 1421.03 937.875 1420.72 937.875C1420.39 937.875 1420.1 937.76 1419.85 937.531C1419.6 937.302 1419.47 937.01 1419.47 936.656L1419.53 929.594C1419.53 929.052 1419.65 928.646 1419.88 928.375C1420.11 928.104 1420.37 927.969 1420.66 927.969C1421.01 927.969 1421.29 928.073 1421.47 928.281C1421.68 928.49 1421.79 928.927 1421.79 929.594C1421.79 930.76 1422.2 931.823 1423.03 932.781C1423.89 933.74 1425.05 934.49 1426.5 935.031C1427.96 935.573 1429.58 935.844 1431.35 935.844C1433.72 935.844 1435.53 935.479 1436.79 934.75C1438.06 934 1438.69 932.865 1438.69 931.344C1438.69 930.281 1438.41 929.427 1437.85 928.781C1437.29 928.115 1436.34 927.656 1435 927.406L1426.69 925.781C1424.61 925.385 1422.99 924.687 1421.85 923.687ZM1458.32 932.25C1457.13 930.25 1456.53 927.885 1456.53 925.156C1456.53 922.573 1457.15 920.323 1458.38 918.406C1459.63 916.49 1461.3 915.021 1463.38 914C1465.48 912.979 1467.81 912.469 1470.35 912.469C1472.51 912.469 1474.44 912.875 1476.13 913.687C1477.84 914.479 1479.17 915.656 1480.13 917.219C1481.11 918.781 1481.6 920.677 1481.6 922.906C1481.6 923.698 1481.38 924.354 1480.94 924.875C1480.5 925.375 1479.92 925.625 1479.19 925.625L1459.53 925.781C1459.64 929.073 1460.68 931.573 1462.66 933.281C1464.64 934.99 1467.23 935.844 1470.44 935.844C1472 935.844 1473.53 935.563 1475.03 935C1476.56 934.417 1477.91 933.563 1479.1 932.437C1479.53 932.083 1479.96 931.906 1480.38 931.906C1480.75 931.906 1481.06 932.042 1481.29 932.313C1481.51 932.583 1481.63 932.906 1481.63 933.281C1481.63 933.74 1481.44 934.177 1481.07 934.594C1479.98 935.76 1478.42 936.687 1476.38 937.375C1474.36 938.063 1472.46 938.406 1470.69 938.406C1467.9 938.406 1465.43 937.875 1463.29 936.813C1461.16 935.75 1459.5 934.229 1458.32 932.25ZM1477 917.5C1475.86 915.854 1473.66 915.031 1470.41 915.031C1467.37 915.031 1464.9 915.771 1463 917.25C1461.13 918.729 1460 920.802 1459.63 923.469L1478.94 923.344C1478.8 921.094 1478.15 919.146 1477 917.5ZM1552.85 923.187V922.563C1552.85 920.125 1552.37 918.26 1551.41 916.969C1550.47 915.677 1548.84 915.031 1546.5 915.031C1545.19 915.031 1543.98 915.146 1542.88 915.375C1541.8 915.583 1540.7 915.937 1539.6 916.437C1539.51 918.042 1539.33 919.25 1539.03 920.063C1538.74 920.875 1538.24 921.281 1537.53 921.281C1536.93 921.281 1536.46 921.073 1536.13 920.656C1535.82 920.24 1535.66 919.698 1535.66 919.031C1535.66 917.781 1536.12 916.656 1537.03 915.656C1537.95 914.656 1539.23 913.875 1540.88 913.313C1542.52 912.75 1544.41 912.469 1546.53 912.469C1548.93 912.469 1550.81 912.917 1552.16 913.813C1553.53 914.708 1554.49 916 1555.03 917.687C1555.58 919.354 1555.85 921.458 1555.85 924V933.75C1555.85 934.479 1555.99 934.979 1556.29 935.25C1556.58 935.5 1556.97 935.625 1557.47 935.625C1558.01 935.625 1558.59 935.469 1559.19 935.156C1559.8 934.823 1560.27 934.469 1560.63 934.094C1560.86 933.844 1561.11 933.719 1561.38 933.719C1561.69 933.719 1561.96 933.854 1562.19 934.125C1562.42 934.396 1562.53 934.698 1562.53 935.031C1562.53 935.344 1562.43 935.604 1562.22 935.813C1561.56 936.521 1560.79 937.083 1559.91 937.5C1559.06 937.896 1558.16 938.094 1557.22 938.094C1556.16 938.094 1555.26 937.844 1554.53 937.344C1553.81 936.823 1553.32 935.823 1553.07 934.344C1552.05 935.49 1550.61 936.448 1548.75 937.219C1546.92 937.99 1544.92 938.375 1542.75 938.375C1540.42 938.375 1538.6 937.74 1537.29 936.469C1535.97 935.177 1535.32 933.458 1535.32 931.313C1535.32 929.146 1536 927.51 1537.38 926.406C1538.75 925.302 1540.44 924.573 1542.44 924.219C1544.46 923.865 1547.17 923.573 1550.57 923.344L1552.85 923.187ZM1548.5 934.813C1550.27 934.104 1551.72 933.156 1552.85 931.969V925.344L1551.57 925.469C1548.15 925.802 1545.59 926.125 1543.88 926.437C1542.19 926.729 1540.85 927.25 1539.85 928C1538.85 928.75 1538.35 929.854 1538.35 931.313C1538.35 932.896 1538.77 934.052 1539.63 934.781C1540.5 935.49 1541.66 935.844 1543.1 935.844C1544.95 935.844 1546.75 935.5 1548.5 934.813ZM1595.35 920C1595.06 919.708 1594.91 919.302 1594.91 918.781V915.031C1592.12 915.031 1589.65 915.583 1587.5 916.687C1585.36 917.771 1583.87 919.354 1583.03 921.437V935.313H1593.53C1593.93 935.313 1594.23 935.437 1594.44 935.687C1594.67 935.937 1594.79 936.24 1594.79 936.594C1594.79 936.927 1594.67 937.229 1594.44 937.5C1594.21 937.75 1593.9 937.875 1593.5 937.875H1574.44C1573.98 937.875 1573.63 937.75 1573.38 937.5C1573.13 937.229 1573 936.917 1573 936.563C1573 936.229 1573.12 935.937 1573.35 935.687C1573.58 935.437 1573.9 935.313 1574.32 935.313H1580.03V915.719L1576.22 916.5C1576.14 916.521 1576.01 916.531 1575.85 916.531C1575.45 916.531 1575.14 916.406 1574.91 916.156C1574.7 915.906 1574.6 915.615 1574.6 915.281C1574.6 914.99 1574.68 914.74 1574.85 914.531C1575.01 914.302 1575.24 914.156 1575.53 914.094L1580.88 913.031C1581.15 912.969 1581.39 912.937 1581.6 912.937C1582.06 912.937 1582.36 913.083 1582.5 913.375C1582.67 913.667 1582.76 914.104 1582.79 914.687L1582.91 917.937C1585.29 914.292 1589.37 912.469 1595.16 912.469C1596.16 912.469 1596.87 912.625 1597.29 912.937C1597.7 913.25 1597.91 913.719 1597.91 914.344V918.656C1597.91 919.219 1597.75 919.656 1597.44 919.969C1597.15 920.26 1596.8 920.406 1596.38 920.406C1595.98 920.406 1595.64 920.271 1595.35 920ZM1612.38 932.25C1611.21 930.25 1610.63 927.885 1610.63 925.156C1610.63 922.573 1611.25 920.323 1612.5 918.406C1613.77 916.49 1615.48 915.021 1617.63 914C1619.77 912.979 1622.15 912.469 1624.75 912.469C1628.05 912.469 1630.66 913.094 1632.6 914.344C1634.53 915.594 1635.5 917.563 1635.5 920.25C1635.5 921 1635.34 921.604 1635 922.063C1634.69 922.521 1634.23 922.75 1633.63 922.75C1633.02 922.75 1632.61 922.375 1632.38 921.625C1632.15 920.854 1631.93 919.552 1631.72 917.719L1631.57 916.437C1630.52 915.917 1629.48 915.552 1628.44 915.344C1627.42 915.135 1626.35 915.031 1625.22 915.031C1622.81 915.031 1620.72 915.437 1618.97 916.25C1617.24 917.063 1615.92 918.229 1615 919.75C1614.09 921.25 1613.63 923.052 1613.63 925.156C1613.63 928.677 1614.6 931.344 1616.53 933.156C1618.49 934.948 1621.12 935.844 1624.41 935.844C1626.33 935.844 1627.93 935.583 1629.22 935.063C1630.51 934.542 1631.81 933.687 1633.1 932.5C1633.45 932.167 1633.88 932 1634.38 932C1634.69 932 1634.95 932.104 1635.16 932.313C1635.37 932.521 1635.47 932.844 1635.47 933.281C1635.47 933.74 1635.29 934.177 1634.91 934.594C1633.83 935.781 1632.29 936.719 1630.29 937.406C1628.31 938.073 1626.43 938.406 1624.66 938.406C1621.89 938.406 1619.44 937.875 1617.32 936.813C1615.19 935.75 1613.55 934.229 1612.38 932.25ZM1671.66 935.313V921C1671.66 919.104 1671.18 917.635 1670.22 916.594C1669.29 915.552 1667.89 915.031 1666.03 915.031C1664.14 915.031 1662.42 915.406 1660.88 916.156C1659.36 916.885 1658.17 917.823 1657.32 918.969C1656.46 920.115 1656.03 921.24 1656.03 922.344V935.313H1659.32C1659.8 935.313 1660.16 935.437 1660.41 935.687C1660.68 935.937 1660.82 936.229 1660.82 936.563C1660.82 936.917 1660.67 937.229 1660.38 937.5C1660.11 937.75 1659.73 937.875 1659.25 937.875H1649.79C1649.33 937.875 1648.97 937.74 1648.72 937.469C1648.47 937.198 1648.35 936.885 1648.35 936.531C1648.35 936.198 1648.46 935.917 1648.69 935.687C1648.92 935.437 1649.24 935.313 1649.66 935.313H1653.03V903.781L1648.41 904.063C1648.06 904.083 1647.76 903.99 1647.53 903.781C1647.31 903.552 1647.19 903.271 1647.19 902.937C1647.19 902.646 1647.27 902.365 1647.44 902.094C1647.63 901.823 1647.89 901.677 1648.22 901.656L1654.13 901.063C1654.46 901.021 1654.67 901 1654.75 901C1655.61 901 1656.03 901.406 1656.03 902.219V917.906C1656.56 916.885 1657.32 915.969 1658.32 915.156C1659.32 914.323 1660.47 913.667 1661.79 913.187C1663.12 912.708 1664.48 912.469 1665.88 912.469C1668.82 912.469 1671.01 913.229 1672.47 914.75C1673.93 916.271 1674.66 918.427 1674.66 921.219V935.313H1678.07C1678.46 935.313 1678.76 935.437 1678.97 935.687C1679.2 935.937 1679.32 936.229 1679.32 936.563C1679.32 936.917 1679.2 937.229 1678.97 937.5C1678.74 937.75 1678.42 937.875 1678 937.875H1667.22C1666.76 937.875 1666.41 937.74 1666.16 937.469C1665.91 937.198 1665.79 936.885 1665.79 936.531C1665.79 936.198 1665.9 935.917 1666.13 935.687C1666.36 935.437 1666.68 935.313 1667.1 935.313H1671.66ZM1731.32 901.063C1731.65 901.021 1731.86 901 1731.94 901C1732.8 901 1733.22 901.406 1733.22 902.219V915.781C1734.47 914.698 1735.79 913.875 1737.16 913.313C1738.56 912.75 1740.2 912.469 1742.1 912.469C1744.49 912.469 1746.58 913.031 1748.35 914.156C1750.14 915.26 1751.51 916.802 1752.47 918.781C1753.43 920.74 1753.91 922.958 1753.91 925.437C1753.91 927.958 1753.44 930.198 1752.5 932.156C1751.57 934.115 1750.21 935.646 1748.44 936.75C1746.69 937.854 1744.62 938.406 1742.22 938.406C1740.35 938.406 1738.63 938.063 1737.07 937.375C1735.5 936.687 1734.18 935.792 1733.1 934.687C1733.1 935.687 1733.02 936.427 1732.88 936.906C1732.73 937.385 1732.55 937.687 1732.32 937.813C1732.11 937.937 1731.84 938 1731.5 938C1731.11 938 1730.8 937.833 1730.57 937.5C1730.34 937.167 1730.22 936.521 1730.22 935.563V903.781L1726.22 904.031C1726.14 904.052 1726.05 904.073 1725.94 904.094C1725.84 904.115 1725.72 904.125 1725.6 904.125C1725.24 904.125 1724.95 904.01 1724.72 903.781C1724.49 903.552 1724.38 903.271 1724.38 902.937C1724.38 902.646 1724.46 902.375 1724.63 902.125C1724.8 901.875 1725.06 901.719 1725.41 901.656L1731.32 901.063ZM1736.91 934.625C1738.41 935.437 1740.16 935.844 1742.16 935.844C1744.03 935.844 1745.63 935.375 1746.94 934.437C1748.25 933.5 1749.24 932.25 1749.91 930.687C1750.58 929.104 1750.91 927.354 1750.91 925.437C1750.91 923.542 1750.57 921.802 1749.88 920.219C1749.19 918.635 1748.17 917.375 1746.82 916.437C1745.46 915.5 1743.83 915.031 1741.91 915.031C1738.26 915.031 1735.37 916.375 1733.22 919.063V931.313C1734.2 932.708 1735.43 933.813 1736.91 934.625ZM1787.29 916.25H1775.69V931.5C1775.69 933 1776.18 934.104 1777.16 934.813C1778.16 935.5 1779.46 935.844 1781.07 935.844C1782.52 935.844 1784.03 935.594 1785.6 935.094C1787.18 934.573 1788.47 933.937 1789.47 933.187C1789.56 933.104 1789.67 933.063 1789.82 933.063C1790.11 933.063 1790.4 933.24 1790.69 933.594C1790.98 933.948 1791.13 934.302 1791.13 934.656C1791.13 934.823 1791.08 934.979 1790.97 935.125C1790.53 935.646 1789.77 936.167 1788.69 936.687C1787.63 937.187 1786.39 937.594 1784.97 937.906C1783.56 938.24 1782.15 938.406 1780.75 938.406C1779.34 938.406 1778 938.146 1776.75 937.625C1775.52 937.083 1774.53 936.365 1773.79 935.469C1773.06 934.573 1772.69 933.615 1772.69 932.594V916.25H1768.22C1767.76 916.25 1767.41 916.115 1767.16 915.844C1766.91 915.573 1766.79 915.26 1766.79 914.906C1766.79 914.573 1766.9 914.292 1767.13 914.063C1767.36 913.813 1767.68 913.687 1768.1 913.687H1772.69C1772.69 911.083 1772.72 909.219 1772.79 908.094C1772.85 906.969 1773 906.146 1773.25 905.625C1773.52 905.083 1773.96 904.813 1774.57 904.813C1775.02 904.813 1775.33 904.937 1775.47 905.187C1775.62 905.417 1775.69 905.76 1775.69 906.219V913.687H1787.32C1787.69 913.687 1787.98 913.823 1788.19 914.094C1788.42 914.344 1788.53 914.635 1788.53 914.969C1788.53 915.323 1788.42 915.625 1788.19 915.875C1787.98 916.125 1787.68 916.25 1787.29 916.25ZM1813.19 914.969C1813.19 914.115 1813.67 913.687 1814.63 913.687H1822.57C1823.38 913.687 1823.79 914.125 1823.79 915C1823.79 915.833 1823.39 916.25 1822.6 916.25H1819.19L1825.82 935L1831.1 916.25H1829.07C1828.25 916.25 1827.85 915.833 1827.85 915C1827.85 914.125 1828.26 913.687 1829.1 913.687H1836C1836.96 913.687 1837.44 914.115 1837.44 914.969C1837.44 915.823 1837 916.25 1836.13 916.25H1833.97L1827.97 936.187C1827.7 937.063 1827.39 937.635 1827.03 937.906C1826.68 938.177 1826.24 938.313 1825.72 938.313C1825.2 938.313 1824.74 938.167 1824.35 937.875C1823.95 937.583 1823.58 936.969 1823.22 936.031L1819 924.344L1814.5 936.187C1814.17 937.083 1813.84 937.656 1813.5 937.906C1813.17 938.177 1812.75 938.313 1812.25 938.313C1811.71 938.313 1811.23 938.167 1810.82 937.875C1810.42 937.604 1810.07 936.99 1809.75 936.031L1803.22 916.25H1800.79C1799.91 916.25 1799.47 915.823 1799.47 914.969C1799.47 914.115 1799.95 913.687 1800.91 913.687H1808.25C1809.07 913.687 1809.47 914.125 1809.47 915C1809.47 915.833 1809.08 916.25 1808.29 916.25H1806.66L1812.35 935L1817.63 920.531L1816.1 916.25H1814.5C1813.63 916.25 1813.19 915.823 1813.19 914.969Z" fill="#3982B8"/>
<path d="M1554.27 649.5C1554.12 649.375 1554.05 649.224 1554.05 649.047C1554.05 648.953 1554.07 648.865 1554.11 648.781L1564.53 628C1564.58 627.896 1564.66 627.818 1564.77 627.766C1564.87 627.703 1564.98 627.672 1565.11 627.672C1565.3 627.672 1565.46 627.729 1565.61 627.844C1565.76 627.958 1565.83 628.104 1565.83 628.281C1565.83 628.375 1565.8 628.484 1565.73 628.609L1555.36 649.328C1555.22 649.578 1555.03 649.703 1554.78 649.703C1554.59 649.703 1554.42 649.635 1554.27 649.5ZM1574.45 627.766C1574.56 627.818 1574.64 627.896 1574.69 628L1585.11 648.781C1585.15 648.865 1585.17 648.953 1585.17 649.047C1585.17 649.234 1585.1 649.391 1584.95 649.516C1584.81 649.641 1584.64 649.703 1584.45 649.703C1584.19 649.703 1583.99 649.578 1583.86 649.328L1573.48 628.609C1573.43 628.505 1573.41 628.396 1573.41 628.281C1573.41 628.104 1573.48 627.958 1573.62 627.844C1573.77 627.729 1573.94 627.672 1574.12 627.672C1574.25 627.672 1574.36 627.703 1574.45 627.766ZM1534.89 684.5C1534.74 684.375 1534.67 684.224 1534.67 684.047C1534.67 683.953 1534.69 683.865 1534.73 683.781L1545.16 663C1545.21 662.896 1545.29 662.818 1545.39 662.766C1545.49 662.703 1545.61 662.672 1545.73 662.672C1545.92 662.672 1546.09 662.729 1546.23 662.844C1546.38 662.958 1546.45 663.104 1546.45 663.281C1546.45 663.375 1546.42 663.484 1546.36 663.609L1535.98 684.328C1535.85 684.578 1535.66 684.703 1535.41 684.703C1535.22 684.703 1535.05 684.635 1534.89 684.5ZM1593.83 662.766C1593.93 662.818 1594.01 662.896 1594.06 663L1604.48 683.781C1604.53 683.865 1604.55 683.953 1604.55 684.047C1604.55 684.234 1604.47 684.391 1604.33 684.516C1604.18 684.641 1604.02 684.703 1603.83 684.703C1603.57 684.703 1603.37 684.578 1603.23 684.328L1592.86 663.609C1592.81 663.505 1592.78 663.396 1592.78 663.281C1592.78 663.104 1592.85 662.958 1593 662.844C1593.15 662.729 1593.31 662.672 1593.5 662.672C1593.62 662.672 1593.73 662.703 1593.83 662.766ZM1515.52 719.5C1515.37 719.375 1515.3 719.224 1515.3 719.047C1515.3 718.953 1515.32 718.865 1515.36 718.781L1525.78 698C1525.83 697.896 1525.91 697.818 1526.02 697.766C1526.12 697.703 1526.23 697.672 1526.36 697.672C1526.55 697.672 1526.71 697.729 1526.86 697.844C1527.01 697.958 1527.08 698.104 1527.08 698.281C1527.08 698.375 1527.05 698.484 1526.98 698.609L1516.61 719.328C1516.47 719.578 1516.28 719.703 1516.03 719.703C1515.84 719.703 1515.67 719.635 1515.52 719.5ZM1535.7 697.766C1535.81 697.818 1535.89 697.896 1535.94 698L1546.36 718.781C1546.4 718.865 1546.42 718.953 1546.42 719.047C1546.42 719.234 1546.35 719.391 1546.2 719.516C1546.06 719.641 1545.89 719.703 1545.7 719.703C1545.44 719.703 1545.24 719.578 1545.11 719.328L1534.73 698.609C1534.68 698.505 1534.66 698.396 1534.66 698.281C1534.66 698.104 1534.73 697.958 1534.88 697.844C1535.02 697.729 1535.19 697.672 1535.38 697.672C1535.5 697.672 1535.61 697.703 1535.7 697.766ZM1613.2 697.766C1613.31 697.818 1613.39 697.896 1613.44 698L1623.86 718.781C1623.9 718.865 1623.92 718.953 1623.92 719.047C1623.92 719.234 1623.85 719.391 1623.7 719.516C1623.56 719.641 1623.39 719.703 1623.2 719.703C1622.94 719.703 1622.74 719.578 1622.61 719.328L1612.23 698.609C1612.18 698.505 1612.16 698.396 1612.16 698.281C1612.16 698.104 1612.23 697.958 1612.38 697.844C1612.52 697.729 1612.69 697.672 1612.88 697.672C1613 697.672 1613.11 697.703 1613.2 697.766ZM1496.14 754.5C1495.99 754.375 1495.92 754.224 1495.92 754.047C1495.92 753.953 1495.94 753.865 1495.98 753.781L1506.41 733C1506.46 732.896 1506.54 732.818 1506.64 732.766C1506.74 732.703 1506.86 732.672 1506.98 732.672C1507.17 732.672 1507.34 732.729 1507.48 732.844C1507.63 732.958 1507.7 733.104 1507.7 733.281C1507.7 733.375 1507.67 733.484 1507.61 733.609L1497.23 754.328C1497.1 754.578 1496.91 754.703 1496.66 754.703C1496.47 754.703 1496.3 754.635 1496.14 754.5ZM1534.56 735.875C1534.64 735.875 1534.71 735.891 1534.78 735.922L1548.53 741.578C1548.66 741.63 1548.76 741.734 1548.83 741.891C1548.9 742.047 1548.94 742.219 1548.94 742.406C1548.94 742.604 1548.9 742.786 1548.83 742.953C1548.76 743.109 1548.66 743.214 1548.53 743.266L1534.97 748.906C1534.91 748.927 1534.85 748.938 1534.81 748.938C1534.64 748.938 1534.47 748.849 1534.33 748.672C1534.19 748.484 1534.12 748.292 1534.12 748.094C1534.12 747.844 1534.23 747.677 1534.45 747.594L1547.09 742.469L1534.3 737.266C1534.02 737.151 1533.88 736.953 1533.88 736.672C1533.88 736.474 1533.94 736.292 1534.08 736.125C1534.21 735.958 1534.38 735.875 1534.56 735.875ZM1577.82 751.32C1576.49 751.32 1575.37 750.957 1574.46 750.232C1573.56 749.507 1572.88 748.493 1572.41 747.192C1571.94 745.891 1571.71 744.387 1571.71 742.68C1571.71 740.653 1571.98 738.904 1572.54 737.432C1573.09 735.96 1573.76 734.765 1574.55 733.848H1577.43C1576.9 734.467 1576.41 735.203 1575.96 736.056C1575.53 736.888 1575.18 737.859 1574.91 738.968C1574.65 740.077 1574.52 741.325 1574.52 742.712C1574.52 744.781 1574.84 746.349 1575.48 747.416C1576.12 748.461 1576.96 748.984 1578.01 748.984C1578.71 748.984 1579.29 748.803 1579.74 748.44C1580.21 748.077 1580.55 747.587 1580.76 746.968C1580.97 746.328 1581.08 745.613 1581.08 744.824V739.672H1583.77V744.824C1583.77 745.699 1583.89 746.456 1584.12 747.096C1584.38 747.715 1584.73 748.184 1585.18 748.504C1585.63 748.824 1586.17 748.984 1586.81 748.984C1587.53 748.984 1588.15 748.749 1588.67 748.28C1589.2 747.811 1589.6 747.107 1589.88 746.168C1590.18 745.229 1590.33 744.077 1590.33 742.712C1590.33 741.368 1590.21 740.163 1589.98 739.096C1589.74 738.008 1589.4 737.037 1588.95 736.184C1588.53 735.309 1588.01 734.531 1587.42 733.848H1590.3C1590.87 734.509 1591.37 735.277 1591.8 736.152C1592.23 737.005 1592.56 737.976 1592.79 739.064C1593.03 740.152 1593.15 741.357 1593.15 742.68C1593.15 744.387 1592.91 745.891 1592.44 747.192C1591.97 748.493 1591.28 749.507 1590.36 750.232C1589.47 750.957 1588.36 751.32 1587.03 751.32C1585.86 751.32 1584.9 751.053 1584.15 750.52C1583.41 749.965 1582.85 749.059 1582.49 747.8H1582.33C1582.12 748.632 1581.81 749.315 1581.4 749.848C1581 750.36 1580.49 750.733 1579.9 750.968C1579.3 751.203 1578.61 751.32 1577.82 751.32ZM1629.89 748.938C1629.82 748.938 1629.74 748.922 1629.67 748.891L1615.92 743.234C1615.8 743.182 1615.7 743.078 1615.62 742.922C1615.55 742.766 1615.52 742.594 1615.52 742.406C1615.52 742.208 1615.55 742.031 1615.62 741.875C1615.7 741.708 1615.8 741.599 1615.92 741.547L1629.48 735.906C1629.55 735.885 1629.6 735.875 1629.64 735.875C1629.82 735.875 1629.97 735.969 1630.11 736.156C1630.26 736.333 1630.33 736.521 1630.33 736.719C1630.33 736.969 1630.22 737.135 1630 737.219L1617.36 742.344L1630.16 747.547C1630.44 747.661 1630.58 747.859 1630.58 748.141C1630.58 748.339 1630.51 748.521 1630.38 748.688C1630.24 748.854 1630.08 748.938 1629.89 748.938ZM1638.77 732.766C1638.87 732.818 1638.95 732.896 1639 733L1649.42 753.781C1649.46 753.865 1649.48 753.953 1649.48 754.047C1649.48 754.234 1649.41 754.391 1649.27 754.516C1649.12 754.641 1648.95 754.703 1648.77 754.703C1648.51 754.703 1648.31 754.578 1648.17 754.328L1637.8 733.609C1637.74 733.505 1637.72 733.396 1637.72 733.281C1637.72 733.104 1637.79 732.958 1637.94 732.844C1638.08 732.729 1638.25 732.672 1638.44 732.672C1638.56 732.672 1638.67 732.703 1638.77 732.766ZM1476.77 789.5C1476.62 789.375 1476.55 789.224 1476.55 789.047C1476.55 788.953 1476.57 788.865 1476.61 788.781L1487.03 768C1487.08 767.896 1487.16 767.818 1487.27 767.766C1487.37 767.703 1487.48 767.672 1487.61 767.672C1487.8 767.672 1487.96 767.729 1488.11 767.844C1488.26 767.958 1488.33 768.104 1488.33 768.281C1488.33 768.375 1488.3 768.484 1488.23 768.609L1477.86 789.328C1477.72 789.578 1477.53 789.703 1477.28 789.703C1477.09 789.703 1476.92 789.635 1476.77 789.5ZM1553.5 784.797C1553.62 784.651 1553.8 784.578 1554.02 784.578H1565.88C1566.09 784.578 1566.27 784.651 1566.39 784.797C1566.52 784.932 1566.58 785.094 1566.58 785.281C1566.58 785.479 1566.52 785.651 1566.39 785.797C1566.27 785.932 1566.09 786 1565.88 786H1554.02C1553.8 786 1553.62 785.932 1553.5 785.797C1553.38 785.651 1553.31 785.479 1553.31 785.281C1553.31 785.094 1553.38 784.932 1553.5 784.797ZM1572.88 784.797C1573 784.651 1573.17 784.578 1573.39 784.578H1585.25C1585.47 784.578 1585.64 784.651 1585.77 784.797C1585.89 784.932 1585.95 785.094 1585.95 785.281C1585.95 785.479 1585.89 785.651 1585.77 785.797C1585.64 785.932 1585.47 786 1585.25 786H1573.39C1573.17 786 1573 785.932 1572.88 785.797C1572.75 785.651 1572.69 785.479 1572.69 785.281C1572.69 785.094 1572.75 784.932 1572.88 784.797ZM1651.95 767.766C1652.06 767.818 1652.14 767.896 1652.19 768L1662.61 788.781C1662.65 788.865 1662.67 788.953 1662.67 789.047C1662.67 789.234 1662.6 789.391 1662.45 789.516C1662.31 789.641 1662.14 789.703 1661.95 789.703C1661.69 789.703 1661.49 789.578 1661.36 789.328L1650.98 768.609C1650.93 768.505 1650.91 768.396 1650.91 768.281C1650.91 768.104 1650.98 767.958 1651.12 767.844C1651.27 767.729 1651.44 767.672 1651.62 767.672C1651.75 767.672 1651.86 767.703 1651.95 767.766ZM1457.39 824.5C1457.24 824.375 1457.17 824.224 1457.17 824.047C1457.17 823.953 1457.19 823.865 1457.23 823.781L1467.66 803C1467.71 802.896 1467.79 802.818 1467.89 802.766C1467.99 802.703 1468.11 802.672 1468.23 802.672C1468.42 802.672 1468.59 802.729 1468.73 802.844C1468.88 802.958 1468.95 803.104 1468.95 803.281C1468.95 803.375 1468.92 803.484 1468.86 803.609L1458.48 824.328C1458.35 824.578 1458.16 824.703 1457.91 824.703C1457.72 824.703 1457.55 824.635 1457.39 824.5ZM1495.38 819.797C1495.5 819.651 1495.67 819.578 1495.89 819.578H1507.75C1507.97 819.578 1508.14 819.651 1508.27 819.797C1508.39 819.932 1508.45 820.094 1508.45 820.281C1508.45 820.479 1508.39 820.651 1508.27 820.797C1508.14 820.932 1507.97 821 1507.75 821H1495.89C1495.67 821 1495.5 820.932 1495.38 820.797C1495.25 820.651 1495.19 820.479 1495.19 820.281C1495.19 820.094 1495.25 819.932 1495.38 819.797ZM1514.75 819.797C1514.88 819.651 1515.05 819.578 1515.27 819.578H1527.12C1527.34 819.578 1527.52 819.651 1527.64 819.797C1527.77 819.932 1527.83 820.094 1527.83 820.281C1527.83 820.479 1527.77 820.651 1527.64 820.797C1527.52 820.932 1527.34 821 1527.12 821H1515.27C1515.05 821 1514.88 820.932 1514.75 820.797C1514.62 820.651 1514.56 820.479 1514.56 820.281C1514.56 820.094 1514.62 819.932 1514.75 819.797ZM1540.86 821.875V802.125C1540.86 801.885 1540.95 801.698 1541.14 801.562C1541.34 801.427 1541.57 801.359 1541.83 801.359C1542.09 801.359 1542.3 801.427 1542.45 801.562C1542.62 801.698 1542.71 801.885 1542.73 802.125V822.047C1542.73 822.255 1542.64 822.422 1542.44 822.547C1542.24 822.682 1542.03 822.75 1541.8 822.75C1541.17 822.75 1540.86 822.458 1540.86 821.875ZM1598.98 821.875V802.125C1598.98 801.885 1599.08 801.698 1599.27 801.562C1599.46 801.427 1599.69 801.359 1599.95 801.359C1600.21 801.359 1600.42 801.427 1600.58 801.562C1600.74 801.698 1600.84 801.885 1600.86 802.125V822.047C1600.86 822.255 1600.76 822.422 1600.56 822.547C1600.36 822.682 1600.15 822.75 1599.92 822.75C1599.3 822.75 1598.98 822.458 1598.98 821.875ZM1611.62 819.797C1611.75 819.651 1611.92 819.578 1612.14 819.578H1624C1624.22 819.578 1624.39 819.651 1624.52 819.797C1624.64 819.932 1624.7 820.094 1624.7 820.281C1624.7 820.479 1624.64 820.651 1624.52 820.797C1624.39 820.932 1624.22 821 1624 821H1612.14C1611.92 821 1611.75 820.932 1611.62 820.797C1611.5 820.651 1611.44 820.479 1611.44 820.281C1611.44 820.094 1611.5 819.932 1611.62 819.797ZM1631 819.797C1631.12 819.651 1631.3 819.578 1631.52 819.578H1643.38C1643.59 819.578 1643.77 819.651 1643.89 819.797C1644.02 819.932 1644.08 820.094 1644.08 820.281C1644.08 820.479 1644.02 820.651 1643.89 820.797C1643.77 820.932 1643.59 821 1643.38 821H1631.52C1631.3 821 1631.12 820.932 1631 820.797C1630.88 820.651 1630.81 820.479 1630.81 820.281C1630.81 820.094 1630.88 819.932 1631 819.797ZM1652.39 814.297C1652.29 814.172 1652.23 814.016 1652.23 813.828C1652.23 813.63 1652.29 813.474 1652.39 813.359C1652.51 813.245 1652.72 813.188 1653.05 813.188H1660.97C1661.28 813.188 1661.49 813.245 1661.59 813.359C1661.71 813.474 1661.77 813.63 1661.77 813.828C1661.77 814.026 1661.71 814.182 1661.59 814.297C1661.49 814.411 1661.28 814.469 1660.97 814.469H1653.05C1652.72 814.469 1652.51 814.411 1652.39 814.297ZM1671.33 802.766C1671.43 802.818 1671.51 802.896 1671.56 803L1681.98 823.781C1682.03 823.865 1682.05 823.953 1682.05 824.047C1682.05 824.234 1681.97 824.391 1681.83 824.516C1681.68 824.641 1681.52 824.703 1681.33 824.703C1681.07 824.703 1680.87 824.578 1680.73 824.328L1670.36 803.609C1670.31 803.505 1670.28 803.396 1670.28 803.281C1670.28 803.104 1670.35 802.958 1670.5 802.844C1670.65 802.729 1670.81 802.672 1671 802.672C1671.12 802.672 1671.23 802.703 1671.33 802.766ZM1438.02 859.5C1437.87 859.375 1437.8 859.224 1437.8 859.047C1437.8 858.953 1437.82 858.865 1437.86 858.781L1448.28 838C1448.33 837.896 1448.41 837.818 1448.52 837.766C1448.62 837.703 1448.73 837.672 1448.86 837.672C1449.05 837.672 1449.21 837.729 1449.36 837.844C1449.51 837.958 1449.58 838.104 1449.58 838.281C1449.58 838.375 1449.55 838.484 1449.48 838.609L1439.11 859.328C1438.97 859.578 1438.78 859.703 1438.53 859.703C1438.34 859.703 1438.17 859.635 1438.02 859.5ZM1456.62 854.797C1456.75 854.651 1456.92 854.578 1457.14 854.578H1469C1469.22 854.578 1469.39 854.651 1469.52 854.797C1469.64 854.932 1469.7 855.094 1469.7 855.281C1469.7 855.479 1469.64 855.651 1469.52 855.797C1469.39 855.932 1469.22 856 1469 856H1457.14C1456.92 856 1456.75 855.932 1456.62 855.797C1456.5 855.651 1456.44 855.479 1456.44 855.281C1456.44 855.094 1456.5 854.932 1456.62 854.797ZM1478.02 849.297C1477.91 849.172 1477.86 849.016 1477.86 848.828C1477.86 848.63 1477.91 848.474 1478.02 848.359C1478.13 848.245 1478.35 848.188 1478.67 848.188H1486.59C1486.91 848.188 1487.11 848.245 1487.22 848.359C1487.33 848.474 1487.39 848.63 1487.39 848.828C1487.39 849.026 1487.33 849.182 1487.22 849.297C1487.11 849.411 1486.91 849.469 1486.59 849.469H1478.67C1478.35 849.469 1478.13 849.411 1478.02 849.297ZM1502.72 838.469V838.562L1502.19 844.734C1502.18 844.839 1502.14 844.917 1502.06 844.969C1502 845.021 1501.92 845.047 1501.81 845.047C1501.71 845.047 1501.62 845.021 1501.55 844.969C1501.47 844.917 1501.43 844.839 1501.42 844.734L1500.92 838.547C1500.9 838.276 1500.98 838.068 1501.16 837.922C1501.33 837.766 1501.55 837.688 1501.81 837.688C1502.05 837.688 1502.26 837.76 1502.44 837.906C1502.62 838.042 1502.72 838.229 1502.72 838.469ZM1522.09 838.469V838.562L1521.56 844.734C1521.55 844.839 1521.51 844.917 1521.44 844.969C1521.38 845.021 1521.29 845.047 1521.19 845.047C1521.08 845.047 1520.99 845.021 1520.92 844.969C1520.85 844.917 1520.81 844.839 1520.8 844.734L1520.3 838.547C1520.28 838.276 1520.35 838.068 1520.53 837.922C1520.71 837.766 1520.93 837.688 1521.19 837.688C1521.43 837.688 1521.64 837.76 1521.81 837.906C1522 838.042 1522.09 838.229 1522.09 838.469ZM1618.97 838.469V838.562L1618.44 844.734C1618.43 844.839 1618.39 844.917 1618.31 844.969C1618.25 845.021 1618.17 845.047 1618.06 845.047C1617.96 845.047 1617.87 845.021 1617.8 844.969C1617.72 844.917 1617.68 844.839 1617.67 844.734L1617.17 838.547C1617.15 838.276 1617.23 838.068 1617.41 837.922C1617.58 837.766 1617.8 837.688 1618.06 837.688C1618.3 837.688 1618.51 837.76 1618.69 837.906C1618.88 838.042 1618.97 838.229 1618.97 838.469ZM1638.34 838.469V838.562L1637.81 844.734C1637.8 844.839 1637.76 844.917 1637.69 844.969C1637.62 845.021 1637.54 845.047 1637.44 845.047C1637.33 845.047 1637.24 845.021 1637.17 844.969C1637.1 844.917 1637.06 844.839 1637.05 844.734L1636.55 838.547C1636.53 838.276 1636.6 838.068 1636.78 837.922C1636.96 837.766 1637.18 837.688 1637.44 837.688C1637.68 837.688 1637.89 837.76 1638.06 837.906C1638.25 838.042 1638.34 838.229 1638.34 838.469ZM1652.39 849.297C1652.29 849.172 1652.23 849.016 1652.23 848.828C1652.23 848.63 1652.29 848.474 1652.39 848.359C1652.51 848.245 1652.72 848.188 1653.05 848.188H1660.97C1661.28 848.188 1661.49 848.245 1661.59 848.359C1661.71 848.474 1661.77 848.63 1661.77 848.828C1661.77 849.026 1661.71 849.182 1661.59 849.297C1661.49 849.411 1661.28 849.469 1660.97 849.469H1653.05C1652.72 849.469 1652.51 849.411 1652.39 849.297ZM1669.75 854.797C1669.88 854.651 1670.05 854.578 1670.27 854.578H1682.12C1682.34 854.578 1682.52 854.651 1682.64 854.797C1682.77 854.932 1682.83 855.094 1682.83 855.281C1682.83 855.479 1682.77 855.651 1682.64 855.797C1682.52 855.932 1682.34 856 1682.12 856H1670.27C1670.05 856 1669.88 855.932 1669.75 855.797C1669.62 855.651 1669.56 855.479 1669.56 855.281C1669.56 855.094 1669.62 854.932 1669.75 854.797ZM1690.7 837.766C1690.81 837.818 1690.89 837.896 1690.94 838L1701.36 858.781C1701.4 858.865 1701.42 858.953 1701.42 859.047C1701.42 859.234 1701.35 859.391 1701.2 859.516C1701.06 859.641 1700.89 859.703 1700.7 859.703C1700.44 859.703 1700.24 859.578 1700.11 859.328L1689.73 838.609C1689.68 838.505 1689.66 838.396 1689.66 838.281C1689.66 838.104 1689.73 837.958 1689.88 837.844C1690.02 837.729 1690.19 837.672 1690.38 837.672C1690.5 837.672 1690.61 837.703 1690.7 837.766Z" fill="#3982B8"/>
</g>
<defs>
<clipPath id="clip0_506_11">
<rect width="1920" height="1080" fill="white"/>
</clipPath>
</defs>
</svg>
